<?xml version="1.0" encoding="utf-8"?>
<!-- Generator: Adobe Illustrator 19.2.1, SVG Export Plug-In . SVG Version: 6.00 Build 0)  -->
<svg version="1.1" id="layer" xmlns="http://www.w3.org/2000/svg" xmlns:xlink="http://www.w3.org/1999/xlink" x="0px" y="0px"
	 viewBox="0 0 652 652" style="enable-background:new 0 0 652 652;" xml:space="preserve">
<style type="text/css">
	.st0{fill:#ffff;}
</style>
<g>
	<path class="st0" d="M373.1,265.9l-43.1,110h5.7c0,0,13.6-34.8,14.2-36.1h46.2c0.5,1.3,14,36.1,14,36.1h5.8L373.1,265.9
		 M351.7,334.9c1.1-2.7,19.6-50.6,21.5-55.3c1.8,4.7,20.1,52.6,21.2,55.3H351.7z M135.7,375.6h-5.4c0,0-9.1-82.6-9.9-89.8
		c-3,6.6-42.4,92.4-42.4,92.4s-39-85.8-42.1-92.5c-0.8,7.3-9.6,89.9-9.6,89.9h-5.4l11.6-109.1c0,0,43.6,95.1,45.5,99.3
		c1.9-4.1,46-99.4,46-99.4L135.7,375.6z M206.2,265.8c-29.5,0-54.4,25.6-54.4,55.8c0,31.9,23.4,55.9,54.4,56v0h0.2v0
		c13.9,0,27.7-5.8,37.7-15.8c10.5-10.5,16.4-24.8,16.4-40.2C260.4,291.4,235.6,265.8,206.2,265.8 M206.4,372.6
		c-26.9,0-48.9-22.8-48.9-50.8c0-13.5,5.1-26.3,14.5-36c8.6-9,19.9-14.2,31.8-14.9c0,0,0,0,0,0h2.6c12.9,0,25.1,5.3,34.3,15
		c9.3,9.7,14.4,22.5,14.4,36.1c0,13.4-5.1,26.1-14.4,35.7C231.5,367.3,219.3,372.6,206.4,372.6 M336.6,267.3L300,378.1l-37.4-110.8
		h5.8c0,0,29.7,88.5,31.6,94.4c1.9-5.9,31.2-94.4,31.2-94.4H336.6z M485.7,282.3c-9.6-10-22.5-15-38.2-15h-20.2v108.6h20.2
		c15.5,0,28.2-5,37.9-14.8h0.2l0.3-0.3c9.7-10.1,15.3-24.2,15.3-38.9C501.2,306.2,495.8,292.6,485.7,282.3 M447.2,371h-14.8v-98.8
		h14.8c28.4,0,48.3,20.4,48.3,49.5C495.5,355.6,470.5,371,447.2,371 M566.7,265.8c-29.5,0-54.4,25.6-54.4,55.8
		c0,31.9,23.4,55.9,54.4,56v0h0.2v0c13.9,0,27.7-5.8,37.7-15.8c10.5-10.5,16.4-24.8,16.4-40.2C620.9,291.4,596.1,265.8,566.7,265.8
		 M601.2,357.7c-9.3,9.6-21.5,14.9-34.3,14.9c-26.9,0-48.9-22.8-48.9-50.8c0-13.5,5.1-26.3,14.5-36c8.6-9,19.8-14.2,31.8-14.9l0,0
		h2.6c12.9,0,25.1,5.3,34.3,15c9.3,9.7,14.4,22.5,14.4,36.1C615.5,335.4,610.4,348,601.2,357.7"/>
</g>
</svg>
